<svg xmlns="http://www.w3.org/2000/svg" viewBox="0 0 24 24"
     fill="none" stroke="currentColor" stroke-linecap="round" stroke-linejoin="round">
  <path d="M22.27 10.37L22.27 13.63L19.39 13.77L18.48 15.97L20.41 18.11L18.11 20.41L15.97 18.48L13.77 19.39L13.63 22.27L10.37 22.27L10.23 19.39L8.03 18.48L5.89 20.41L3.59 18.11L5.52 15.97L4.61 13.77L1.73 13.63L1.73 10.37L4.61 10.23L5.52 8.03L3.59 5.89L5.89 3.59L8.03 5.52L10.23 4.61L10.37 1.73L13.63 1.73L13.77 4.61L15.97 5.52L18.11 3.59L20.41 5.89L18.48 8.03L19.39 10.23Z" stroke-width="1.6"/>
  <path d="M12 8.9a3.1 3.1 0 1 0 0 6.2 3.1 3.1 0 0 0 0-6.2z" stroke-width="1.6"/>
</svg>
